<?xml version="1.0" standalone="no"?>
<!DOCTYPE svg PUBLIC "-//W3C//DTD SVG 20010904//EN"
 "http://www.w3.org/TR/2001/REC-SVG-20010904/DTD/svg10.dtd">
<svg version="1.0" xmlns="http://www.w3.org/2000/svg"
 width="1024.000000pt" height="1024.000000pt" viewBox="0 0 1024.000000 1024.000000"
 preserveAspectRatio="xMidYMid meet">

<g transform="translate(0.000000,1024.000000) scale(0.100000,-0.100000)"
fill="#000000" stroke="none">
<path d="M1723 8743 l-23 -4 0 -3575 0 -3574 755 0 755 0 0 155 0 155 320 0
320 0 0 -155 0 -155 510 0 510 0 0 155 0 155 180 0 180 0 0 -155 0 -155 925 0
925 0 0 664 0 665 353 -2 352 -2 3 158 3 157 169 0 170 0 0 149 c0 82 3 156 6
165 5 14 28 16 145 16 l139 0 0 120 0 120 145 0 145 0 0 1965 0 1965 -145 0
-145 0 0 160 0 160 -140 0 -140 0 -2 198 -3 197 -172 3 -173 2 0 151 0 150
-1280 -1 -1280 -1 0 -510 0 -509 -180 0 -180 0 0 160 0 160 -160 0 -160 0 0
200 0 200 -175 0 -175 0 0 150 0 150 -1227 -1 c-676 -1 -1238 -4 -1250 -6z
m2113 -456 c4 -4 9 -63 11 -132 3 -113 1 -125 -15 -126 -9 0 -327 0 -707 0
-783 2 -932 -3 -938 -28 -3 -9 -5 52 -6 136 l-1 152 53 3 c115 7 1596 2 1603
-5z m3697 7 l127 -7 0 -108 c0 -59 3 -114 6 -123 5 -13 26 -16 129 -16 l124 0
4 -147 c8 -219 7 -397 -1 -405 -9 -9 -1819 -11 -1833 -3 -5 4 -7 10 -4 15 3 5
2 11 -2 13 -5 3 -7 72 -6 154 2 81 2 177 1 213 -1 36 -2 80 -2 98 l-1 32 -85
-1 c-47 -1 -74 -4 -60 -7 23 -4 24 -5 5 -13 -19 -7 -19 -8 3 -8 12 -1 22 5 22
12 0 8 4 7 10 -3 9 -13 10 -13 10 0 0 13 1 13 10 0 6 -10 10 -11 10 -2 0 6 5
12 10 12 6 0 11 -19 12 -42 l1 -43 7 45 7 45 3 -45 3 -45 7 45 c6 40 7 38 7
-24 -1 -60 -2 -66 -11 -40 l-9 29 -13 -30 -12 -30 -13 44 c-7 24 -15 38 -17
31 -3 -9 -6 -9 -13 1 -6 10 -9 11 -9 2 0 -7 -5 -13 -11 -13 -5 0 -7 5 -4 10 3
6 -3 10 -14 10 -13 0 -21 -7 -22 -17 0 -16 -2 -15 -9 2 -8 17 -9 15 -7 -10 1
-22 7 -30 19 -29 10 1 15 -2 12 -7 -3 -5 14 -9 38 -9 31 0 39 -3 28 -10 -13
-8 -12 -10 3 -10 9 0 17 -5 17 -11 0 -5 6 -7 13 -3 7 4 7 2 -2 -7 -10 -11 -15
-11 -18 -1 -3 6 -11 12 -19 12 -9 0 -12 -4 -9 -10 3 -5 -2 -10 -12 -10 -10 0
-29 -3 -43 -6 l-25 -5 25 16 c17 11 19 14 5 9 -11 -4 -30 -7 -42 -7 -25 -1
-32 -17 -8 -17 8 0 15 -6 15 -13 0 -8 -7 -14 -15 -14 -8 0 -15 4 -15 9 0 4 -4
8 -10 8 -6 0 -9 -5 -8 -11 2 -6 -3 -14 -11 -17 -8 -2 -11 0 -7 6 3 5 -1 13
-10 16 -28 11 -53 6 -63 -11 -9 -15 -10 -14 -11 10 0 15 -6 27 -12 28 -10 0
-10 2 0 6 7 3 11 21 11 46 l-2 42 -7 -40 -7 -40 -2 40 c-2 22 -2 61 -1 88 1
28 -3 47 -9 47 -8 0 -11 -117 -11 -385 l0 -385 233 -1 c127 -1 699 -1 1270 0
l1037 1 0 -123 0 -124 -494 -7 c-272 -4 -846 -4 -1275 0 l-781 7 0 643 0 644
368 2 c1070 8 1358 8 1475 2z m-3425 -386 c3 -150 14 -141 -143 -136 l-100 3
-5 116 c-3 64 -4 124 -2 133 3 15 19 16 125 14 l122 -3 3 -127z m-1921 -15
c-2 -16 -4 -3 -4 27 0 30 2 43 4 28 2 -16 2 -40 0 -55z m3747 32 c3 -8 1 -15
-4 -15 -6 0 -10 7 -10 15 0 8 2 15 4 15 2 0 6 -7 10 -15z m-3426 -161 c3 -37
0 -42 -22 -48 -15 -3 -37 -4 -51 0 -21 5 -25 12 -25 44 0 43 9 50 60 47 33 -2
35 -4 38 -43z m3282 26 c0 -5 -7 -10 -15 -10 -8 0 -15 5 -15 10 0 6 7 10 15
10 8 0 15 -4 15 -10z m-2052 -69 l-3 -46 -55 0 c-59 0 -68 10 -56 61 8 30 35
41 82 36 35 -4 35 -4 32 -51z m676 7 c6 -46 1 -147 -9 -156 -3 -3 -47 -6 -98
-6 l-92 -1 -3 89 c-2 49 -1 95 2 103 4 9 30 13 100 13 l94 0 6 -42z m3816 -30
c0 -34 -3 -58 -7 -55 -3 4 -6 31 -6 59 l1 53 -8 -48 c-11 -66 -21 -73 -15 -11
3 36 2 42 -4 24 -6 -15 -9 -19 -10 -9 -1 9 -8 19 -16 23 -26 9 -16 25 18 28
17 2 35 2 40 0 4 -2 7 -31 7 -64z m-130 52 c0 -5 -2 -10 -4 -10 -3 0 -8 5 -11
10 -3 6 -1 10 4 10 6 0 11 -4 11 -10z m-93 -22 c-3 -8 -6 -5 -6 6 -1 11 2 17
5 13 3 -3 4 -12 1 -19z m103 -12 c0 -3 -4 -8 -10 -11 -5 -3 -10 -1 -10 4 0 6
5 11 10 11 6 0 10 -2 10 -4z m-5368 -17 c37 2 38 1 39 -31 4 -84 1 -159 -4
-165 -4 -3 -45 -7 -92 -9 -74 -3 -87 -1 -92 14 -4 9 -11 20 -17 24 -7 5 -7 8
-1 8 15 0 17 41 3 57 -6 8 -6 13 -1 13 5 0 9 14 8 30 -2 35 16 55 45 47 11 -3
20 -1 20 3 0 11 32 18 45 11 5 -3 26 -4 47 -2z m5422 -4 c3 -8 1 -15 -4 -15
-6 0 -10 7 -10 15 0 8 2 15 4 15 2 0 6 -7 10 -15z m-5977 -77 c-2 -13 -4 -3
-4 22 0 25 2 35 4 23 2 -13 2 -33 0 -45z m2495 -250 l3 -123 78 -3 77 -3 0
-119 0 -120 -490 0 -490 0 0 99 c0 55 -4 101 -9 103 -5 2 -5 13 0 26 8 20 15
22 85 22 l76 0 -3 78 -4 77 55 0 55 0 5 -75 5 -75 198 -3 197 -2 0 120 0 120
80 0 79 0 3 -122z m-1993 -118 c274 0 500 -2 502 -4 2 -2 3 -59 1 -125 l-3
-121 -505 -2 -504 -3 2 215 c1 118 4 176 5 128 l4 -88 498 0z m968 -26 c-3 -3
-12 -4 -19 -1 -8 3 -5 6 6 6 11 1 17 -2 13 -5z m-15 -91 c1 -34 -1 -65 -5 -69
-4 -4 -7 26 -7 66 0 88 8 90 12 3z m118 7 c0 -5 -5 -10 -11 -10 -5 0 -7 5 -4
10 3 6 8 10 11 10 2 0 4 -4 4 -10z m45 -32 c-5 -21 -5 -21 9 2 l14 25 -1 -27
c-1 -14 -5 -24 -9 -21 -5 2 -7 -4 -6 -14 0 -10 0 -29 -1 -43 -3 -23 -4 -22
-13 9 -9 33 -9 33 -24 12 -8 -11 -19 -21 -25 -21 -5 0 0 9 11 20 11 11 20 25
20 32 0 6 -3 9 -6 5 -4 -3 -13 0 -20 8 -18 18 -18 31 0 16 10 -9 16 -8 26 4
18 22 32 18 25 -7z m-98 6 c-3 -3 -12 -4 -19 -1 -8 3 -5 6 6 6 11 1 17 -2 13
-5z m34 -39 c5 4 9 -1 9 -10 0 -9 -4 -14 -9 -11 -5 3 -11 -1 -15 -9 -3 -8 -12
-15 -20 -15 -10 0 -13 6 -9 16 5 13 7 13 14 2 6 -9 9 -7 9 10 0 16 -6 22 -22
22 -18 0 -20 2 -8 9 8 6 18 7 22 5 4 -3 9 3 9 13 1 10 4 6 6 -10 2 -15 9 -25
14 -22z m-74 -17 c-3 -7 -5 -2 -5 12 0 14 2 19 5 13 2 -7 2 -19 0 -25z m-477
-398 l0 -90 -383 0 c-211 0 -439 -3 -505 -7 l-122 -6 0 96 0 97 505 0 505 0 0
-90z m1650 0 l0 -89 -482 -3 c-266 -2 -486 0 -489 5 -3 4 -6 45 -7 92 l-3 85
491 0 490 0 0 -90z m871 -30 c6 0 9 21 8 52 -3 43 0 52 16 58 11 4 23 2 27 -3
5 -8 14 -7 31 2 15 8 34 10 48 5 38 -12 73 -14 79 -4 3 5 46 5 100 0 52 -5
124 -7 160 -5 70 5 64 0 -15 -11 -42 -6 -46 -8 -25 -14 14 -4 29 -3 34 2 6 4
17 8 25 8 13 -1 13 -2 -1 -11 -10 -5 -18 -17 -18 -24 0 -18 -17 -20 -23 -2 -2
6 -8 8 -13 4 -5 -4 -2 -12 6 -18 13 -8 13 -10 0 -19 -11 -7 -11 -10 -2 -10 7
0 11 -4 7 -10 -3 -5 -13 -6 -22 -3 -10 4 -14 2 -9 -5 3 -6 2 -13 -4 -17 -6 -3
-10 4 -11 17 -1 23 -1 23 -9 -2 -7 -21 -8 -22 -9 -5 -1 16 -3 17 -11 5 -7 -11
-30 -15 -89 -15 -64 0 -81 -3 -81 -14 0 -12 -3 -11 -12 2 -13 17 -58 14 -58
-4 0 -5 6 -6 14 -3 8 3 17 0 21 -6 4 -7 -5 -10 -29 -8 -28 2 -36 6 -36 22 0
11 -3 16 -7 12 -5 -4 -8 -12 -8 -18 0 -19 -35 -18 -36 0 0 14 -2 13 -9 -3 -7
-16 -9 -13 -9 17 -1 20 4 39 9 41 6 3 5 4 -2 3 -7 -1 -16 -22 -19 -47 -5 -37
-6 -39 -7 -11 -1 17 -6 32 -11 32 -6 0 -12 -15 -14 -32 -2 -18 -4 12 -3 67 0
60 1 75 3 38 2 -35 9 -63 14 -63z m1733 104 c3 -9 6 -51 6 -95 l0 -79 -420 0
-421 0 -8 22 c-4 12 -6 35 -4 52 1 16 -1 44 -6 63 -6 20 -6 31 0 28 5 -4 9 1
9 9 0 14 46 16 419 16 373 0 420 -2 425 -16z m796 -74 l0 -90 -72 -1 c-40 0
-98 0 -128 -1 -30 0 -61 0 -67 1 -10 1 -13 26 -13 91 l0 90 140 0 140 0 0 -90z
m-2011 23 c-8 -10 -20 -22 -28 -27 -11 -7 -11 -10 0 -17 11 -7 10 -9 -3 -9
-10 0 -18 -4 -18 -10 0 -5 -4 -10 -10 -10 -18 0 -11 19 21 55 31 35 64 50 38
18z m24 -33 c3 -12 0 -20 -8 -20 -8 0 -11 8 -8 20 3 11 7 20 8 20 1 0 5 -9 8
-20z m-288 -70 c-3 -5 -10 -10 -16 -10 -5 0 -9 5 -9 10 0 6 7 10 16 10 8 0 12
-4 9 -10z m2273 -2572 l3 -108 -290 0 -289 0 -4 -52 c-3 -29 -6 -114 -7 -188
-1 -74 -4 -137 -7 -140 -5 -5 -222 -5 -1501 -1 l-453 1 0 180 c0 137 3 180 13
181 6 0 1 5 -13 10 -14 6 -113 10 -227 9 l-203 -1 0 98 0 99 1328 -4 c1205 -3
1329 -2 1347 12 17 13 44 16 160 14 l140 -3 3 -107z m-5048 -203 l0 -285 -505
1 -505 0 0 285 0 284 505 0 505 0 0 -285z m1650 121 c0 -116 -3 -165 -12 -168
-9 -3 -8 -16 1 -52 7 -31 9 -74 5 -117 l-7 -69 -198 0 -199 0 2 -82 c0 -46 3
-68 5 -50 3 23 9 32 18 28 7 -2 35 1 62 8 29 7 66 9 93 5 25 -4 80 -8 123 -8
74 -1 78 -2 87 -27 6 -14 10 -58 10 -99 l0 -73 -207 -3 c-473 -7 -704 -2 -715
15 -5 8 -8 7 -8 -1 0 -7 -7 -13 -15 -13 -13 0 -15 18 -13 113 2 98 2 102 5 32
2 -44 8 -84 12 -88 5 -5 6 3 4 17 -3 16 -1 26 7 26 8 0 10 12 5 39 -6 38 -5
39 29 51 20 6 40 9 46 5 5 -3 10 -2 10 4 0 16 181 6 191 -11 6 -9 9 -6 10 12
0 14 2 42 5 63 l4 37 -143 1 c-78 1 -152 1 -164 1 l-23 -1 0 284 0 285 485 0
485 0 0 -164z m-2160 -503 c367 -1 485 -4 488 -13 3 -9 7 -9 13 1 5 9 9 -27 9
-88 l0 -103 -191 -2 -191 -3 1 -162 2 -163 -316 0 -315 0 0 125 0 125 190 0
c132 -1 195 3 209 12 23 14 36 59 14 51 -7 -3 -13 0 -13 6 0 8 -54 11 -175 11
-160 0 -175 2 -176 18 -1 16 -2 16 -6 0 -2 -10 -13 -18 -24 -18 -18 0 -19 8
-19 113 0 61 4 108 8 102 4 -6 182 -11 492 -12z m3061 0 c93 17 810 5 840 -14
8 -5 14 -40 17 -98 l4 -90 -447 -1 c-246 0 -451 -3 -456 -6 -5 -3 -9 48 -9
113 0 71 4 113 9 104 6 -9 19 -12 42 -8z m-1841 -292 c0 -5 -6 -11 -12 -13
-10 -4 -10 -10 -1 -29 l12 -24 0 26 c1 43 20 50 122 47 l94 -3 3 -122 3 -123
-126 0 -125 0 0 125 c0 104 2 125 15 125 8 0 15 -4 15 -9z m933 -67 c8 -84 0
-155 -17 -166 -6 -4 -73 -8 -148 -8 l-138 0 0 118 c0 65 3 122 7 125 3 4 70 7
148 7 l142 0 6 -76z m1762 66 c13 -21 8 -222 -5 -230 -20 -12 -290 -13 -290 0
0 5 -10 10 -22 9 -22 0 -22 -1 -3 -9 12 -5 -36 -9 -127 -9 l-148 -1 0 125 0
125 294 0 c195 0 297 -4 301 -10z m-2338 -346 c-3 -3 -12 -4 -19 -1 -8 3 -5 6
6 6 11 1 17 -2 13 -5z m-1473 -20 c8 -3 13 -33 15 -89 l2 -85 -98 0 c-99 0
-123 7 -123 38 0 7 4 11 9 8 4 -3 5 13 1 37 -5 26 -4 44 2 48 5 3 9 9 9 13 -3
18 0 29 5 23 4 -3 16 1 28 9 16 12 35 14 79 9 32 -3 64 -8 71 -11z m1618 -6
c2 -7 3 -47 3 -88 l0 -75 -95 0 c-92 0 -95 1 -98 24 -2 13 0 21 5 18 5 -3 7
13 5 35 -3 27 0 43 9 49 11 7 9 9 -6 10 l-20 0 20 9 c11 5 14 9 7 9 -7 1 -10
6 -7 11 9 15 172 13 177 -2z"/>
<path d="M5770 7999 c0 -5 5 -7 10 -4 6 3 10 8 10 11 0 2 -4 4 -10 4 -5 0 -10
-5 -10 -11z"/>
<path d="M5810 7999 c0 -5 5 -7 10 -4 6 3 10 8 10 11 0 2 -4 4 -10 4 -5 0 -10
-5 -10 -11z"/>
<path d="M5732 7960 c0 -19 2 -27 5 -17 2 9 2 25 0 35 -3 9 -5 1 -5 -18z"/>
<path d="M5871 7934 c0 -11 3 -14 6 -6 3 7 2 16 -1 19 -3 4 -6 -2 -5 -13z"/>
<path d="M6001 7940 c0 -8 4 -22 9 -30 12 -18 12 -2 0 25 -6 13 -9 15 -9 5z"/>
<path d="M5832 7906 c7 -8 15 -12 17 -11 5 6 -10 25 -20 25 -5 0 -4 -6 3 -14z"/>
<path d="M5820 7830 c-23 -7 -23 -8 -3 -9 12 -1 25 4 28 9 3 6 5 10 3 9 -2 -1
-14 -5 -28 -9z"/>
<path d="M3785 7110 c-3 -5 1 -22 10 -37 9 -16 13 -19 9 -8 -4 11 -7 28 -8 38
0 20 -2 21 -11 7z"/>
<path d="M5827 6728 c4 -7 6 -21 5 -30 -2 -13 1 -16 12 -12 19 7 19 14 2 37
-15 19 -31 24 -19 5z"/>
<path d="M5728 6723 c7 -3 16 -2 19 1 4 3 -2 6 -13 5 -11 0 -14 -3 -6 -6z"/>
<path d="M5751 6706 c-7 -8 -8 -17 -3 -20 6 -3 13 1 16 10 9 23 2 28 -13 10z"/>
<path d="M5790 6704 c0 -8 5 -12 10 -9 6 3 10 10 10 16 0 5 -4 9 -10 9 -5 0
-10 -7 -10 -16z"/>
<path d="M6080 6700 c0 -5 5 -10 11 -10 5 0 7 5 4 10 -3 6 -8 10 -11 10 -2 0
-4 -4 -4 -10z"/>
<path d="M5830 6630 c8 -5 22 -9 30 -9 10 0 8 3 -5 9 -27 12 -43 12 -25 0z"/>
<path d="M5978 6632 c-10 -2 -18 -8 -18 -13 0 -6 5 -7 12 -3 7 5 25 7 40 6 15
-1 28 -1 28 2 0 6 -44 12 -62 8z"/>
<path d="M5772 6610 c0 -14 2 -19 5 -12 2 6 2 18 0 25 -3 6 -5 1 -5 -13z"/>
<path d="M5768 3883 c23 -2 59 -2 80 0 20 2 1 4 -43 4 -44 0 -61 -2 -37 -4z"/>
<path d="M5700 3860 c0 -5 5 -10 11 -10 5 0 7 5 4 10 -3 6 -8 10 -11 10 -2 0
-4 -4 -4 -10z"/>
<path d="M5705 3755 c-4 -31 -5 -58 -2 -61 3 -3 9 20 12 51 4 31 5 58 2 61 -3
3 -9 -20 -12 -51z"/>
<path d="M7632 3740 c0 -14 2 -19 5 -12 2 6 2 18 0 25 -3 6 -5 1 -5 -13z"/>
<path d="M2200 3678 l5 -83 3 77 3 77 57 4 57 3 -65 2 -65 2 5 -82z"/>
<path d="M2812 3660 c0 -14 2 -19 5 -12 2 6 2 18 0 25 -3 6 -5 1 -5 -13z"/>
<path d="M4245 3843 c-10 -66 -7 -177 5 -181 6 -2 8 -8 5 -12 -3 -5 26 -8 65
-7 38 1 70 5 70 10 0 4 6 6 13 5 7 -2 12 6 11 19 0 12 3 20 7 17 4 -2 10 0 14
6 3 5 0 10 -7 11 -7 0 -4 4 7 8 18 8 17 10 -12 27 -32 18 -33 22 -33 82 l0 62
-69 0 -69 0 -7 -47z"/>
<path d="M3880 3718 c1 -38 2 -41 12 -23 17 28 17 38 2 53 -12 11 -14 6 -14
-30z"/>
<path d="M3920 3750 c0 -5 18 -10 40 -10 22 0 40 5 40 10 0 6 -18 10 -40 10
-22 0 -40 -4 -40 -10z"/>
<path d="M3985 3370 c-3 -5 -1 -10 4 -10 6 0 11 5 11 10 0 6 -2 10 -4 10 -3 0
-8 -4 -11 -10z"/>
<path d="M4456 3363 c-6 -14 -5 -15 5 -6 7 7 10 15 7 18 -3 3 -9 -2 -12 -12z"/>
<path d="M3978 3273 c7 -3 16 -2 19 1 4 3 -2 6 -13 5 -11 0 -14 -3 -6 -6z"/>
<path d="M3905 3260 c-3 -5 -1 -10 4 -10 6 0 11 5 11 10 0 6 -2 10 -4 10 -3 0
-8 -4 -11 -10z"/>
<path d="M3881 3244 c0 -11 3 -14 6 -6 3 7 2 16 -1 19 -3 4 -6 -2 -5 -13z"/>
<path d="M2212 3333 c-1 -23 -5 -50 -8 -60 -5 -17 -5 -17 6 0 6 9 9 36 7 60
l-4 42 -1 -42z"/>
<path d="M2196 3103 c9 -38 14 -41 14 -10 0 16 7 27 18 30 10 3 6 5 -11 6 -25
1 -27 -1 -21 -26z"/>
<path d="M2203 2995 c0 -27 2 -38 4 -22 2 15 2 37 0 50 -2 12 -4 0 -4 -28z"/>
<path d="M3883 3000 c0 -25 2 -35 4 -22 2 12 2 32 0 45 -2 12 -4 2 -4 -23z"/>
<path d="M4540 3000 c0 -18 4 -29 10 -25 6 3 10 15 10 25 0 10 -4 22 -10 25
-6 4 -10 -7 -10 -25z"/>
<path d="M4541 2943 c0 -11 3 -13 6 -5 2 6 10 9 15 6 7 -4 8 -2 4 4 -11 18
-26 14 -25 -5z"/>
<path d="M4550 2920 c-11 -8 -7 -9 15 -4 37 8 45 14 19 14 -10 0 -26 -5 -34
-10z"/>
<path d="M6262 3095 c0 -16 2 -22 5 -12 2 9 2 23 0 30 -3 6 -5 -1 -5 -18z"/>
<path d="M6582 3060 c0 -14 2 -19 5 -12 2 6 2 18 0 25 -3 6 -5 1 -5 -13z"/>
<path d="M6266 2929 c3 -5 12 -9 21 -9 19 0 9 13 -12 16 -8 1 -13 -2 -9 -7z"/>
</g>
</svg>
